{
	"patcher" : 	{
		"fileversion" : 1,
		"appversion" : 		{
			"major" : 7,
			"minor" : 3,
			"revision" : 4,
			"architecture" : "x86",
			"modernui" : 1
		}
,
		"rect" : [ 365.0, 78.0, 1040.0, 788.0 ],
		"bglocked" : 0,
		"openinpresentation" : 0,
		"default_fontsize" : 12.0,
		"default_fontface" : 0,
		"default_fontname" : "Arial",
		"gridonopen" : 1,
		"gridsize" : [ 15.0, 15.0 ],
		"gridsnaponopen" : 1,
		"objectsnaponopen" : 1,
		"statusbarvisible" : 2,
		"toolbarvisible" : 1,
		"lefttoolbarpinned" : 0,
		"toptoolbarpinned" : 0,
		"righttoolbarpinned" : 0,
		"bottomtoolbarpinned" : 0,
		"toolbars_unpinned_last_save" : 0,
		"tallnewobj" : 0,
		"boxanimatetime" : 200,
		"enablehscroll" : 1,
		"enablevscroll" : 1,
		"devicewidth" : 0.0,
		"description" : "",
		"digest" : "",
		"tags" : "",
		"style" : "",
		"subpatcher_template" : "",
		"boxes" : [ 			{
				"box" : 				{
					"fontname" : "Arial",
					"fontsize" : 13.0,
					"id" : "obj-14",
					"maxclass" : "message",
					"numinlets" : 2,
					"numoutlets" : 1,
					"outlettype" : [ "" ],
					"patching_rect" : [ 699.0, 1214.016113, 87.0, 23.0 ],
					"style" : "",
					"text" : "fullscreen $1"
				}

			}
, 			{
				"box" : 				{
					"id" : "obj-18",
					"maxclass" : "toggle",
					"numinlets" : 1,
					"numoutlets" : 1,
					"outlettype" : [ "int" ],
					"parameter_enable" : 0,
					"patching_rect" : [ 699.0, 1187.016113, 20.0, 20.0 ],
					"style" : ""
				}

			}
, 			{
				"box" : 				{
					"fontname" : "Arial",
					"fontsize" : 13.0,
					"id" : "obj-15",
					"maxclass" : "newobj",
					"numinlets" : 0,
					"numoutlets" : 1,
					"outlettype" : [ "bang" ],
					"patcher" : 					{
						"fileversion" : 1,
						"appversion" : 						{
							"major" : 7,
							"minor" : 3,
							"revision" : 4,
							"architecture" : "x86",
							"modernui" : 1
						}
,
						"rect" : [ 449.0, 336.0, 640.0, 480.0 ],
						"bglocked" : 0,
						"openinpresentation" : 0,
						"default_fontsize" : 12.0,
						"default_fontface" : 0,
						"default_fontname" : "Arial",
						"gridonopen" : 1,
						"gridsize" : [ 15.0, 15.0 ],
						"gridsnaponopen" : 1,
						"objectsnaponopen" : 1,
						"statusbarvisible" : 2,
						"toolbarvisible" : 1,
						"lefttoolbarpinned" : 0,
						"toptoolbarpinned" : 0,
						"righttoolbarpinned" : 0,
						"bottomtoolbarpinned" : 0,
						"toolbars_unpinned_last_save" : 0,
						"tallnewobj" : 0,
						"boxanimatetime" : 200,
						"enablehscroll" : 1,
						"enablevscroll" : 1,
						"devicewidth" : 0.0,
						"description" : "",
						"digest" : "",
						"tags" : "",
						"style" : "",
						"subpatcher_template" : "",
						"boxes" : [ 							{
								"box" : 								{
									"comment" : "",
									"id" : "obj-8",
									"index" : 1,
									"maxclass" : "outlet",
									"numinlets" : 1,
									"numoutlets" : 0,
									"patching_rect" : [ 284.0, 224.0, 25.0, 25.0 ],
									"style" : ""
								}

							}
, 							{
								"box" : 								{
									"fontname" : "Arial",
									"fontsize" : 12.0,
									"id" : "obj-2",
									"maxclass" : "newobj",
									"numinlets" : 2,
									"numoutlets" : 2,
									"outlettype" : [ "bang", "" ],
									"patching_rect" : [ 284.0, 137.0, 43.0, 22.0 ],
									"style" : "",
									"text" : "sel 27"
								}

							}
, 							{
								"box" : 								{
									"fontname" : "Arial",
									"fontsize" : 12.0,
									"id" : "obj-1",
									"maxclass" : "newobj",
									"numinlets" : 0,
									"numoutlets" : 4,
									"outlettype" : [ "int", "int", "int", "int" ],
									"patching_rect" : [ 284.0, 110.0, 59.5, 22.0 ],
									"style" : "",
									"text" : "key"
								}

							}
 ],
						"lines" : [ 							{
								"patchline" : 								{
									"destination" : [ "obj-2", 0 ],
									"source" : [ "obj-1", 0 ]
								}

							}
, 							{
								"patchline" : 								{
									"destination" : [ "obj-8", 0 ],
									"source" : [ "obj-2", 0 ]
								}

							}
 ],
						"bgfillcolor_type" : "gradient",
						"bgfillcolor_color1" : [ 0.435294, 0.462745, 0.498039, 1.0 ],
						"bgfillcolor_color2" : [ 0.290196, 0.309804, 0.301961, 1.0 ],
						"bgfillcolor_color" : [ 0.290196, 0.309804, 0.301961, 1.0 ],
						"bgfillcolor_angle" : 270.0,
						"bgfillcolor_proportion" : 0.39
					}
,
					"patching_rect" : [ 721.5, 1187.016113, 42.0, 23.0 ],
					"saved_object_attributes" : 					{
						"description" : "",
						"digest" : "",
						"globalpatchername" : "",
						"style" : "",
						"tags" : ""
					}
,
					"style" : "",
					"text" : "p esc"
				}

			}
, 			{
				"box" : 				{
					"id" : "obj-87",
					"maxclass" : "newobj",
					"numinlets" : 2,
					"numoutlets" : 0,
					"patcher" : 					{
						"fileversion" : 1,
						"appversion" : 						{
							"major" : 7,
							"minor" : 3,
							"revision" : 4,
							"architecture" : "x86",
							"modernui" : 1
						}
,
						"rect" : [ 395.0, 79.0, 1008.0, 680.0 ],
						"bglocked" : 0,
						"openinpresentation" : 0,
						"default_fontsize" : 12.0,
						"default_fontface" : 0,
						"default_fontname" : "Arial",
						"gridonopen" : 1,
						"gridsize" : [ 15.0, 15.0 ],
						"gridsnaponopen" : 1,
						"objectsnaponopen" : 1,
						"statusbarvisible" : 2,
						"toolbarvisible" : 1,
						"lefttoolbarpinned" : 0,
						"toptoolbarpinned" : 0,
						"righttoolbarpinned" : 0,
						"bottomtoolbarpinned" : 0,
						"toolbars_unpinned_last_save" : 0,
						"tallnewobj" : 0,
						"boxanimatetime" : 200,
						"enablehscroll" : 1,
						"enablevscroll" : 1,
						"devicewidth" : 0.0,
						"description" : "",
						"digest" : "",
						"tags" : "",
						"style" : "",
						"subpatcher_template" : "",
						"visible" : 1,
						"boxes" : [ 							{
								"box" : 								{
									"fontface" : 0,
									"fontname" : "Arial",
									"fontsize" : 12.0,
									"id" : "obj-6",
									"maxclass" : "jit.fpsgui",
									"numinlets" : 1,
									"numoutlets" : 2,
									"outlettype" : [ "", "" ],
									"patching_rect" : [ 186.0, 513.0, 80.0, 35.0 ],
									"style" : ""
								}

							}
, 							{
								"box" : 								{
									"id" : "obj-5",
									"maxclass" : "message",
									"numinlets" : 2,
									"numoutlets" : 1,
									"outlettype" : [ "" ],
									"patching_rect" : [ 415.0, 541.0, 33.0, 22.0 ],
									"style" : "",
									"text" : "stop"
								}

							}
, 							{
								"box" : 								{
									"id" : "obj-3",
									"maxclass" : "message",
									"numinlets" : 2,
									"numoutlets" : 1,
									"outlettype" : [ "" ],
									"patching_rect" : [ 387.0, 495.0, 145.0, 22.0 ],
									"style" : "",
									"text" : "write 15. jpeg normal 600"
								}

							}
, 							{
								"box" : 								{
									"id" : "obj-1",
									"maxclass" : "newobj",
									"numinlets" : 1,
									"numoutlets" : 2,
									"outlettype" : [ "jit_matrix", "" ],
									"patching_rect" : [ 284.0, 603.0, 198.0, 22.0 ],
									"style" : "",
									"text" : "jit.qt.record 1920 1080 @realtime 1"
								}

							}
, 							{
								"box" : 								{
									"id" : "obj-81",
									"maxclass" : "newobj",
									"numinlets" : 6,
									"numoutlets" : 1,
									"outlettype" : [ "" ],
									"patching_rect" : [ 218.666687, 170.010193, 111.0, 22.0 ],
									"style" : "redness",
									"text" : "scale 0 128 90 110"
								}

							}
, 							{
								"box" : 								{
									"id" : "obj-74",
									"maxclass" : "message",
									"numinlets" : 2,
									"numoutlets" : 1,
									"outlettype" : [ "" ],
									"patching_rect" : [ 50.0, 370.743958, 51.0, 22.0 ],
									"style" : "redness",
									"text" : "$1 0. 0."
								}

							}
, 							{
								"box" : 								{
									"id" : "obj-71",
									"maxclass" : "newobj",
									"numinlets" : 6,
									"numoutlets" : 1,
									"outlettype" : [ "" ],
									"patching_rect" : [ 50.0, 332.096619, 116.0, 22.0 ],
									"style" : "redness",
									"text" : "scale 0 128 -0.7 0.3"
								}

							}
, 							{
								"box" : 								{
									"bgcolor" : [ 0.764706, 0.592157, 0.101961, 1.0 ],
									"id" : "obj-68",
									"maxclass" : "newobj",
									"numinlets" : 0,
									"numoutlets" : 1,
									"outlettype" : [ "" ],
									"patching_rect" : [ 218.666687, 100.0, 70.0, 22.0 ],
									"style" : "velvet",
									"text" : "r hand1-2"
								}

							}
, 							{
								"box" : 								{
									"id" : "obj-67",
									"maxclass" : "newobj",
									"numinlets" : 2,
									"numoutlets" : 1,
									"outlettype" : [ "int" ],
									"patching_rect" : [ 301.0, 255.870422, 30.0, 22.0 ],
									"style" : "redness",
									"text" : "* 3"
								}

							}
, 							{
								"box" : 								{
									"bgcolor" : [ 0.764706, 0.592157, 0.101961, 1.0 ],
									"id" : "obj-31",
									"maxclass" : "newobj",
									"numinlets" : 0,
									"numoutlets" : 1,
									"outlettype" : [ "" ],
									"patching_rect" : [ 301.0, 224.870422, 62.0, 22.0 ],
									"style" : "velvet",
									"text" : "r hand1-1"
								}

							}
, 							{
								"box" : 								{
									"id" : "obj-30",
									"interpinlet" : 1,
									"maxclass" : "gain~",
									"numinlets" : 2,
									"numoutlets" : 2,
									"outlettype" : [ "signal", "int" ],
									"parameter_enable" : 0,
									"patching_rect" : [ 242.666687, 236.763245, 37.0, 78.107178 ],
									"size" : 128,
									"style" : "redness"
								}

							}
, 							{
								"box" : 								{
									"format" : 6,
									"id" : "obj-23",
									"maxclass" : "flonum",
									"numinlets" : 1,
									"numoutlets" : 2,
									"outlettype" : [ "", "bang" ],
									"parameter_enable" : 0,
									"patching_rect" : [ 301.0, 292.870422, 50.0, 22.0 ],
									"style" : "redness"
								}

							}
, 							{
								"box" : 								{
									"id" : "obj-14",
									"maxclass" : "newobj",
									"numinlets" : 3,
									"numoutlets" : 4,
									"outlettype" : [ "signal", "signal", "signal", "signal" ],
									"patching_rect" : [ 282.5, 326.870422, 56.0, 22.0 ],
									"style" : "redness",
									"text" : "svf~ 220"
								}

							}
, 							{
								"box" : 								{
									"id" : "obj-47",
									"maxclass" : "newobj",
									"numinlets" : 0,
									"numoutlets" : 1,
									"outlettype" : [ "" ],
									"patching_rect" : [ 218.666687, 342.763245, 25.0, 22.0 ],
									"style" : "redness",
									"text" : "r b"
								}

							}
, 							{
								"box" : 								{
									"id" : "obj-59",
									"maxclass" : "newobj",
									"numinlets" : 2,
									"numoutlets" : 2,
									"outlettype" : [ "jit_matrix", "" ],
									"patching_rect" : [ 284.0, 390.763245, 68.0, 22.0 ],
									"style" : "redness",
									"text" : "jit.catch~ 2"
								}

							}
, 							{
								"box" : 								{
									"id" : "obj-60",
									"maxclass" : "newobj",
									"numinlets" : 9,
									"numoutlets" : 2,
									"outlettype" : [ "jit_matrix", "" ],
									"patching_rect" : [ 284.0, 452.13678, 505.0, 22.0 ],
									"style" : "redness",
									"text" : "jit.gl.mesh synthie @draw_mode points @scale 4. 4. 4. @auto_colors 1 @color_mode vertex"
								}

							}
, 							{
								"box" : 								{
									"id" : "obj-63",
									"maxclass" : "newobj",
									"numinlets" : 1,
									"numoutlets" : 2,
									"outlettype" : [ "bang", "" ],
									"patching_rect" : [ 387.0, 305.843445, 239.0, 22.0 ],
									"style" : "redness",
									"text" : "jit.gl.render synthie @erase_color 0 0 0 0.1"
								}

							}
, 							{
								"box" : 								{
									"id" : "obj-64",
									"maxclass" : "newobj",
									"numinlets" : 1,
									"numoutlets" : 0,
									"patching_rect" : [ 435.0, 255.843567, 27.0, 22.0 ],
									"style" : "redness",
									"text" : "s b"
								}

							}
, 							{
								"box" : 								{
									"id" : "obj-65",
									"maxclass" : "newobj",
									"numinlets" : 1,
									"numoutlets" : 3,
									"outlettype" : [ "bang", "erase", "bang" ],
									"patching_rect" : [ 387.0, 211.510193, 67.0, 22.0 ],
									"style" : "redness",
									"text" : "t b erase b"
								}

							}
, 							{
								"box" : 								{
									"id" : "obj-66",
									"maxclass" : "newobj",
									"numinlets" : 2,
									"numoutlets" : 1,
									"outlettype" : [ "bang" ],
									"patching_rect" : [ 387.0, 170.010193, 128.0, 22.0 ],
									"style" : "redness",
									"text" : "qmetro 40 @active 1"
								}

							}
, 							{
								"box" : 								{
									"attr" : "position",
									"id" : "obj-69",
									"maxclass" : "attrui",
									"numinlets" : 1,
									"numoutlets" : 1,
									"outlettype" : [ "" ],
									"patching_rect" : [ 50.0, 405.803406, 232.0, 22.0 ],
									"style" : "redness"
								}

							}
, 							{
								"box" : 								{
									"attr" : "point_size",
									"id" : "obj-70",
									"maxclass" : "attrui",
									"numinlets" : 1,
									"numoutlets" : 1,
									"outlettype" : [ "" ],
									"patching_rect" : [ 431.5, 405.803406, 150.0, 22.0 ],
									"style" : "redness"
								}

							}
, 							{
								"box" : 								{
									"comment" : "",
									"id" : "obj-85",
									"index" : 1,
									"maxclass" : "inlet",
									"numinlets" : 0,
									"numoutlets" : 1,
									"outlettype" : [ "" ],
									"patching_rect" : [ 50.0, 40.0, 30.0, 30.0 ],
									"style" : ""
								}

							}
, 							{
								"box" : 								{
									"comment" : "",
									"id" : "obj-86",
									"index" : 2,
									"maxclass" : "inlet",
									"numinlets" : 0,
									"numoutlets" : 1,
									"outlettype" : [ "signal" ],
									"patching_rect" : [ 100.666687, 40.0, 30.0, 30.0 ],
									"style" : ""
								}

							}
 ],
						"lines" : [ 							{
								"patchline" : 								{
									"destination" : [ "obj-59", 1 ],
									"source" : [ "obj-14", 1 ]
								}

							}
, 							{
								"patchline" : 								{
									"destination" : [ "obj-59", 0 ],
									"source" : [ "obj-14", 0 ]
								}

							}
, 							{
								"patchline" : 								{
									"destination" : [ "obj-14", 1 ],
									"source" : [ "obj-23", 0 ]
								}

							}
, 							{
								"patchline" : 								{
									"destination" : [ "obj-1", 0 ],
									"source" : [ "obj-3", 0 ]
								}

							}
, 							{
								"patchline" : 								{
									"destination" : [ "obj-14", 0 ],
									"source" : [ "obj-30", 0 ]
								}

							}
, 							{
								"patchline" : 								{
									"destination" : [ "obj-67", 0 ],
									"source" : [ "obj-31", 0 ]
								}

							}
, 							{
								"patchline" : 								{
									"destination" : [ "obj-59", 0 ],
									"source" : [ "obj-47", 0 ]
								}

							}
, 							{
								"patchline" : 								{
									"destination" : [ "obj-1", 0 ],
									"source" : [ "obj-5", 0 ]
								}

							}
, 							{
								"patchline" : 								{
									"destination" : [ "obj-60", 0 ],
									"source" : [ "obj-59", 0 ]
								}

							}
, 							{
								"patchline" : 								{
									"destination" : [ "obj-1", 0 ],
									"order" : 0,
									"source" : [ "obj-60", 0 ]
								}

							}
, 							{
								"patchline" : 								{
									"destination" : [ "obj-6", 0 ],
									"order" : 1,
									"source" : [ "obj-60", 0 ]
								}

							}
, 							{
								"patchline" : 								{
									"destination" : [ "obj-63", 0 ],
									"source" : [ "obj-65", 1 ]
								}

							}
, 							{
								"patchline" : 								{
									"destination" : [ "obj-63", 0 ],
									"source" : [ "obj-65", 0 ]
								}

							}
, 							{
								"patchline" : 								{
									"destination" : [ "obj-64", 0 ],
									"source" : [ "obj-65", 2 ]
								}

							}
, 							{
								"patchline" : 								{
									"destination" : [ "obj-65", 0 ],
									"source" : [ "obj-66", 0 ]
								}

							}
, 							{
								"patchline" : 								{
									"destination" : [ "obj-23", 0 ],
									"source" : [ "obj-67", 0 ]
								}

							}
, 							{
								"patchline" : 								{
									"destination" : [ "obj-81", 0 ],
									"source" : [ "obj-68", 0 ]
								}

							}
, 							{
								"patchline" : 								{
									"destination" : [ "obj-60", 0 ],
									"source" : [ "obj-69", 0 ]
								}

							}
, 							{
								"patchline" : 								{
									"destination" : [ "obj-60", 0 ],
									"source" : [ "obj-70", 0 ]
								}

							}
, 							{
								"patchline" : 								{
									"destination" : [ "obj-74", 0 ],
									"source" : [ "obj-71", 0 ]
								}

							}
, 							{
								"patchline" : 								{
									"destination" : [ "obj-69", 0 ],
									"source" : [ "obj-74", 0 ]
								}

							}
, 							{
								"patchline" : 								{
									"destination" : [ "obj-30", 0 ],
									"source" : [ "obj-81", 0 ]
								}

							}
, 							{
								"patchline" : 								{
									"destination" : [ "obj-71", 0 ],
									"source" : [ "obj-85", 0 ]
								}

							}
, 							{
								"patchline" : 								{
									"destination" : [ "obj-30", 0 ],
									"source" : [ "obj-86", 0 ]
								}

							}
 ]
					}
,
					"patching_rect" : [ 507.5, 1235.922852, 69.0, 22.0 ],
					"saved_object_attributes" : 					{
						"description" : "",
						"digest" : "",
						"globalpatchername" : "",
						"style" : "",
						"tags" : ""
					}
,
					"style" : "",
					"text" : "p drawblob"
				}

			}
, 			{
				"box" : 				{
					"id" : "obj-61",
					"maxclass" : "newobj",
					"numinlets" : 1,
					"numoutlets" : 2,
					"outlettype" : [ "bang", "" ],
					"patching_rect" : [ 699.0, 1260.059448, 168.0, 22.0 ],
					"style" : "redness",
					"text" : "jit.window synthie @floating 1"
				}

			}
, 			{
				"box" : 				{
					"id" : "obj-58",
					"maxclass" : "newobj",
					"numinlets" : 2,
					"numoutlets" : 1,
					"outlettype" : [ "float" ],
					"patching_rect" : [ 161.0, 614.0, 42.0, 22.0 ],
					"style" : "redness",
					"text" : "/ 500."
				}

			}
, 			{
				"box" : 				{
					"id" : "obj-55",
					"maxclass" : "newobj",
					"numinlets" : 0,
					"numoutlets" : 1,
					"outlettype" : [ "" ],
					"patching_rect" : [ 161.0, 568.0, 62.0, 22.0 ],
					"style" : "dialGold",
					"text" : "r hand1-1"
				}

			}
, 			{
				"box" : 				{
					"id" : "obj-13",
					"maxclass" : "newobj",
					"numinlets" : 2,
					"numoutlets" : 1,
					"outlettype" : [ "int" ],
					"patching_rect" : [ 657.0, 322.830444, 31.0, 22.0 ],
					"style" : "redness",
					"text" : "/ 4"
				}

			}
, 			{
				"box" : 				{
					"id" : "obj-2",
					"maxclass" : "newobj",
					"numinlets" : 2,
					"numoutlets" : 1,
					"outlettype" : [ "int" ],
					"patching_rect" : [ 657.0, 363.915222, 30.0, 22.0 ],
					"style" : "redness",
					"text" : "+ 0"
				}

			}
, 			{
				"box" : 				{
					"id" : "obj-1",
					"maxclass" : "newobj",
					"numinlets" : 1,
					"numoutlets" : 1,
					"outlettype" : [ "" ],
					"patching_rect" : [ 657.0, 286.830444, 34.0, 22.0 ],
					"style" : "redness",
					"text" : "mtof"
				}

			}
, 			{
				"box" : 				{
					"id" : "obj-29",
					"maxclass" : "newobj",
					"numinlets" : 1,
					"numoutlets" : 1,
					"outlettype" : [ "" ],
					"patching_rect" : [ 499.999969, 893.333313, 34.0, 22.0 ],
					"style" : "redness",
					"text" : "mtof"
				}

			}
, 			{
				"box" : 				{
					"id" : "obj-28",
					"maxclass" : "newobj",
					"numinlets" : 1,
					"numoutlets" : 1,
					"outlettype" : [ "" ],
					"patching_rect" : [ 525.0, 750.091064, 34.0, 22.0 ],
					"style" : "redness",
					"text" : "mtof"
				}

			}
, 			{
				"box" : 				{
					"id" : "obj-6",
					"maxclass" : "newobj",
					"numinlets" : 0,
					"numoutlets" : 1,
					"outlettype" : [ "" ],
					"patching_rect" : [ 607.666687, 671.666687, 50.0, 22.0 ],
					"style" : "dialGold",
					"text" : "r hp"
				}

			}
, 			{
				"box" : 				{
					"format" : 6,
					"id" : "obj-7",
					"maxclass" : "flonum",
					"numinlets" : 1,
					"numoutlets" : 2,
					"outlettype" : [ "", "bang" ],
					"parameter_enable" : 0,
					"patching_rect" : [ 541.0, 960.649658, 53.0, 22.0 ],
					"style" : "redness"
				}

			}
, 			{
				"box" : 				{
					"format" : 6,
					"id" : "obj-10",
					"maxclass" : "flonum",
					"numinlets" : 1,
					"numoutlets" : 2,
					"outlettype" : [ "", "bang" ],
					"parameter_enable" : 0,
					"patching_rect" : [ 499.999969, 925.972534, 53.0, 22.0 ],
					"style" : "redness"
				}

			}
, 			{
				"box" : 				{
					"id" : "obj-11",
					"maxclass" : "newobj",
					"numinlets" : 2,
					"numoutlets" : 1,
					"outlettype" : [ "signal" ],
					"patching_rect" : [ 499.999969, 960.649658, 32.0, 22.0 ],
					"style" : "redness",
					"text" : "+~"
				}

			}
, 			{
				"box" : 				{
					"id" : "obj-12",
					"maxclass" : "newobj",
					"numinlets" : 3,
					"numoutlets" : 4,
					"outlettype" : [ "signal", "signal", "signal", "signal" ],
					"patching_rect" : [ 458.999969, 987.333313, 101.0, 22.0 ],
					"style" : "redness",
					"text" : "svf~ 300 0.5"
				}

			}
, 			{
				"box" : 				{
					"id" : "obj-3",
					"maxclass" : "newobj",
					"numinlets" : 0,
					"numoutlets" : 1,
					"outlettype" : [ "" ],
					"patching_rect" : [ 525.0, 671.666687, 43.0, 22.0 ],
					"style" : "dialGold",
					"text" : "r lp"
				}

			}
, 			{
				"box" : 				{
					"id" : "obj-62",
					"maxclass" : "newobj",
					"numinlets" : 0,
					"numoutlets" : 1,
					"outlettype" : [ "" ],
					"patching_rect" : [ 220.166595, 1114.093018, 57.0, 22.0 ],
					"style" : "dialGold",
					"text" : "r pan"
				}

			}
, 			{
				"box" : 				{
					"id" : "obj-36",
					"maxclass" : "newobj",
					"numinlets" : 0,
					"numoutlets" : 1,
					"outlettype" : [ "" ],
					"patching_rect" : [ 455.0, 174.589462, 94.0, 22.0 ],
					"style" : "dialGold",
					"text" : "r hand1-2"
				}

			}
, 			{
				"box" : 				{
					"id" : "obj-27",
					"maxclass" : "newobj",
					"numinlets" : 0,
					"numoutlets" : 1,
					"outlettype" : [ "" ],
					"patching_rect" : [ 657.0, 174.589462, 94.0, 22.0 ],
					"style" : "dialGold",
					"text" : "r hand1-1"
				}

			}
, 			{
				"box" : 				{
					"id" : "obj-38",
					"maxclass" : "comment",
					"numinlets" : 1,
					"numoutlets" : 0,
					"patching_rect" : [ 483.499969, 1062.266235, 52.0, 20.0 ],
					"style" : "redness",
					"text" : "filtered"
				}

			}
, 			{
				"box" : 				{
					"id" : "obj-37",
					"maxclass" : "comment",
					"numinlets" : 1,
					"numoutlets" : 0,
					"patching_rect" : [ 342.999969, 1062.266235, 58.0, 20.0 ],
					"style" : "redness",
					"text" : "dryness"
				}

			}
, 			{
				"box" : 				{
					"id" : "obj-4",
					"local" : 1,
					"maxclass" : "ezdac~",
					"numinlets" : 2,
					"numoutlets" : 0,
					"patching_rect" : [ 323.999969, 1242.686035, 64.0, 64.0 ],
					"presentation" : 1,
					"presentation_rect" : [ 222.0, 23.0, 45.0, 45.0 ],
					"style" : "redness"
				}

			}
, 			{
				"box" : 				{
					"bubblesize" : 16,
					"id" : "obj-5",
					"maxclass" : "preset",
					"numinlets" : 1,
					"numoutlets" : 4,
					"outlettype" : [ "preset", "int", "preset", "int" ],
					"patching_rect" : [ 692.0, 680.352661, 267.0, 23.980652 ],
					"preset_data" : [ 						{
							"number" : 1,
							"data" : [ 5, "obj-41", "flonum", "float", -543.0, 5, "obj-42", "flonum", "float", 340.0, 5, "obj-24", "flonum", "float", 123.0, 5, "obj-25", "flonum", "float", -380.5, 5, "obj-26", "flonum", "float", -170.5, 5, "obj-76", "flonum", "float", 383.0, 6, "obj-75", "gain~", "list", 156, 10.0, 6, "obj-73", "gain~", "list", 59, 10.0, 5, "<invalid>", "flonum", "float", 0.78, 6, "obj-5", "gain~", "list", 89, 10.0, 6, "obj-4", "gain~", "list", 92, 10.0 ]
						}
, 						{
							"number" : 2,
							"data" : [ 5, "obj-41", "flonum", "float", 112.0, 5, "obj-42", "flonum", "float", 45.0, 5, "obj-24", "flonum", "float", 133.0, 5, "obj-25", "flonum", "float", 107.0, 5, "obj-26", "flonum", "float", 45.0, 5, "obj-76", "flonum", "float", 113.0, 6, "obj-75", "gain~", "list", 118, 10.0, 6, "obj-73", "gain~", "list", 86, 10.0, 5, "<invalid>", "flonum", "float", 0.14, 6, "obj-5", "gain~", "list", 92, 10.0, 6, "obj-4", "gain~", "list", 83, 10.0 ]
						}
, 						{
							"number" : 3,
							"data" : [ 5, "obj-41", "flonum", "float", 0.0, 5, "obj-42", "flonum", "float", 0.0, 5, "obj-24", "flonum", "float", 30.0, 5, "obj-25", "flonum", "float", 179.720993, 5, "obj-26", "flonum", "float", 217.0, 5, "obj-76", "flonum", "float", 113.0, 6, "obj-75", "gain~", "list", 109, 10.0, 6, "obj-73", "gain~", "list", 103, 10.0, 5, "<invalid>", "flonum", "float", 0.5, 6, "obj-5", "gain~", "list", 98, 10.0, 6, "obj-4", "gain~", "list", 67, 10.0 ]
						}
, 						{
							"number" : 4,
							"data" : [ 5, "obj-41", "flonum", "float", 85.0, 5, "obj-42", "flonum", "float", 240.0, 5, "obj-24", "flonum", "float", 64.0, 5, "obj-25", "flonum", "float", 0.0, 5, "obj-26", "flonum", "float", 0.0, 5, "obj-76", "flonum", "float", 113.0, 6, "obj-75", "gain~", "list", 109, 10.0, 6, "obj-73", "gain~", "list", 103, 10.0, 5, "<invalid>", "flonum", "float", 0.44, 6, "obj-5", "gain~", "list", 86, 10.0, 6, "obj-4", "gain~", "list", 80, 10.0 ]
						}
, 						{
							"number" : 5,
							"data" : [ 5, "obj-41", "flonum", "float", 114.0, 5, "obj-42", "flonum", "float", 125.0, 5, "obj-24", "flonum", "float", 55.560001, 5, "obj-25", "flonum", "float", 0.0, 5, "obj-26", "flonum", "float", 0.0, 5, "obj-76", "flonum", "float", 425.0, 6, "obj-75", "gain~", "list", 129, 10.0, 6, "obj-73", "gain~", "list", 0, 10.0, 5, "<invalid>", "flonum", "float", 0.3, 6, "obj-5", "gain~", "list", 89, 10.0, 6, "obj-4", "gain~", "list", 0, 10.0 ]
						}
, 						{
							"number" : 6,
							"data" : [ 5, "obj-41", "flonum", "float", 112.0, 5, "obj-42", "flonum", "float", 45.0, 5, "obj-24", "flonum", "float", -33.0, 5, "obj-25", "flonum", "float", 0.0, 5, "obj-26", "flonum", "float", 0.0, 5, "obj-76", "flonum", "float", 113.0, 6, "obj-75", "gain~", "list", 129, 10.0, 6, "obj-73", "gain~", "list", 93, 10.0, 5, "<invalid>", "flonum", "float", 0.3, 6, "obj-5", "gain~", "list", 52, 10.0, 6, "obj-4", "gain~", "list", 89, 10.0 ]
						}
, 						{
							"number" : 7,
							"data" : [ 5, "obj-41", "flonum", "float", 324.0, 5, "obj-42", "flonum", "float", 16.0, 5, "obj-24", "flonum", "float", 65.0, 5, "obj-25", "flonum", "float", 0.0, 5, "obj-26", "flonum", "float", 253.0, 5, "obj-76", "flonum", "float", 113.0, 6, "obj-75", "gain~", "list", 129, 10.0, 6, "obj-73", "gain~", "list", 93, 10.0, 5, "<invalid>", "flonum", "float", 0.31, 6, "obj-5", "gain~", "list", 86, 10.0, 6, "obj-4", "gain~", "list", 80, 10.0 ]
						}
, 						{
							"number" : 8,
							"data" : [ 5, "obj-41", "flonum", "float", 85.0, 5, "obj-42", "flonum", "float", 240.0, 5, "obj-24", "flonum", "float", 64.0, 5, "obj-25", "flonum", "float", 0.0, 5, "obj-26", "flonum", "float", 0.0, 5, "obj-76", "flonum", "float", 113.0, 6, "obj-75", "gain~", "list", 129, 10.0, 6, "obj-73", "gain~", "list", 93, 10.0, 5, "<invalid>", "flonum", "float", 0.44, 6, "obj-5", "gain~", "list", 86, 10.0, 6, "obj-4", "gain~", "list", 80, 10.0 ]
						}
, 						{
							"number" : 9,
							"data" : [ 5, "obj-41", "flonum", "float", 109.0, 5, "obj-42", "flonum", "float", 268.0, 5, "obj-24", "flonum", "float", 98.519997, 5, "obj-25", "flonum", "float", 71.0, 5, "obj-26", "flonum", "float", 60.0, 5, "obj-76", "flonum", "float", 29.0, 6, "obj-75", "gain~", "list", 108, 10.0, 6, "obj-73", "gain~", "list", 80, 10.0, 5, "<invalid>", "flonum", "float", 0.44, 6, "obj-5", "gain~", "list", 95, 10.0, 6, "obj-4", "gain~", "list", 92, 10.0 ]
						}
, 						{
							"number" : 10,
							"data" : [ 5, "obj-41", "flonum", "float", -8.040077, 5, "obj-42", "flonum", "float", 35.0, 5, "obj-24", "flonum", "float", 19.0, 5, "obj-25", "flonum", "float", 5.0, 5, "obj-26", "flonum", "float", 27.0, 5, "obj-76", "flonum", "float", 29.0, 6, "obj-75", "gain~", "list", 113, 10.0, 6, "obj-73", "gain~", "list", 101, 10.0, 5, "<invalid>", "flonum", "float", 0.44, 6, "obj-5", "gain~", "list", 95, 10.0, 6, "obj-4", "gain~", "list", 92, 10.0 ]
						}
, 						{
							"number" : 11,
							"data" : [ 5, "obj-41", "flonum", "float", -8.04, 5, "obj-42", "flonum", "float", 35.0, 5, "obj-24", "flonum", "float", 19.0, 5, "obj-25", "flonum", "float", -3.0, 5, "obj-26", "flonum", "float", 69.0, 5, "obj-76", "flonum", "float", 29.0, 6, "obj-75", "gain~", "list", 117, 10.0, 6, "obj-73", "gain~", "list", 101, 10.0, 5, "<invalid>", "flonum", "float", 0.44, 6, "obj-5", "gain~", "list", 95, 10.0, 6, "obj-4", "gain~", "list", 92, 10.0 ]
						}
, 						{
							"number" : 12,
							"data" : [ 5, "obj-41", "flonum", "float", -8.04, 5, "obj-42", "flonum", "float", 35.0, 5, "obj-24", "flonum", "float", 19.0, 5, "obj-25", "flonum", "float", 64.0, 5, "obj-26", "flonum", "float", 69.0, 5, "obj-76", "flonum", "float", 303.0, 6, "obj-75", "gain~", "list", 110, 10.0, 6, "obj-73", "gain~", "list", 0, 10.0, 5, "<invalid>", "flonum", "float", 0.44, 6, "obj-5", "gain~", "list", 95, 10.0, 6, "obj-4", "gain~", "list", 92, 10.0 ]
						}
, 						{
							"number" : 13,
							"data" : [ 5, "obj-41", "flonum", "float", 58.0, 5, "obj-42", "flonum", "float", -34.0, 5, "obj-24", "flonum", "float", 31.0, 5, "obj-25", "flonum", "float", 5.0, 5, "obj-26", "flonum", "float", 5.0, 5, "obj-76", "flonum", "float", 154.0, 6, "obj-75", "gain~", "list", 112, 10.0, 6, "obj-73", "gain~", "list", 101, 10.0, 5, "<invalid>", "flonum", "float", 0.06, 6, "obj-5", "gain~", "list", 95, 10.0, 6, "obj-4", "gain~", "list", 92, 10.0 ]
						}
 ],
					"style" : "redness"
				}

			}
, 			{
				"box" : 				{
					"format" : 6,
					"id" : "obj-77",
					"maxclass" : "flonum",
					"numinlets" : 1,
					"numoutlets" : 2,
					"outlettype" : [ "", "bang" ],
					"parameter_enable" : 0,
					"patching_rect" : [ 541.0, 820.649658, 53.0, 22.0 ],
					"style" : "redness"
				}

			}
, 			{
				"box" : 				{
					"format" : 6,
					"id" : "obj-76",
					"maxclass" : "flonum",
					"numinlets" : 1,
					"numoutlets" : 2,
					"outlettype" : [ "", "bang" ],
					"parameter_enable" : 0,
					"patching_rect" : [ 525.0, 779.972534, 54.0, 22.0 ],
					"style" : "redness"
				}

			}
, 			{
				"box" : 				{
					"id" : "obj-75",
					"interpinlet" : 1,
					"maxclass" : "gain~",
					"numinlets" : 2,
					"numoutlets" : 2,
					"outlettype" : [ "signal", "int" ],
					"parameter_enable" : 0,
					"patching_rect" : [ 458.999969, 1027.766235, 129.0, 27.0 ],
					"size" : 128,
					"style" : "redness"
				}

			}
, 			{
				"box" : 				{
					"id" : "obj-73",
					"interpinlet" : 1,
					"maxclass" : "gain~",
					"numinlets" : 2,
					"numoutlets" : 2,
					"outlettype" : [ "signal", "int" ],
					"parameter_enable" : 0,
					"patching_rect" : [ 323.999969, 1027.766235, 132.0, 29.0 ],
					"size" : 128,
					"style" : "redness"
				}

			}
, 			{
				"box" : 				{
					"id" : "obj-57",
					"maxclass" : "newobj",
					"numinlets" : 2,
					"numoutlets" : 1,
					"outlettype" : [ "signal" ],
					"patching_rect" : [ 289.0, 403.592346, 32.0, 22.0 ],
					"style" : "redness",
					"text" : "+~"
				}

			}
, 			{
				"box" : 				{
					"id" : "obj-56",
					"maxclass" : "comment",
					"numinlets" : 1,
					"numoutlets" : 0,
					"patching_rect" : [ 316.0, 622.926331, 75.0, 20.0 ],
					"style" : "redness",
					"text" : "pulse width"
				}

			}
, 			{
				"box" : 				{
					"format" : 6,
					"id" : "obj-41",
					"maxclass" : "flonum",
					"numinlets" : 1,
					"numoutlets" : 2,
					"outlettype" : [ "", "bang" ],
					"parameter_enable" : 0,
					"patching_rect" : [ 351.5, 374.915222, 59.0, 22.0 ],
					"style" : "redness"
				}

			}
, 			{
				"box" : 				{
					"format" : 6,
					"id" : "obj-42",
					"maxclass" : "flonum",
					"numinlets" : 1,
					"numoutlets" : 2,
					"outlettype" : [ "", "bang" ],
					"parameter_enable" : 0,
					"patching_rect" : [ 351.5, 335.429291, 53.0, 22.0 ],
					"style" : "redness"
				}

			}
, 			{
				"box" : 				{
					"id" : "obj-44",
					"maxclass" : "newobj",
					"numinlets" : 2,
					"numoutlets" : 1,
					"outlettype" : [ "signal" ],
					"patching_rect" : [ 289.0, 363.915222, 31.0, 22.0 ],
					"style" : "redness",
					"text" : "*~"
				}

			}
, 			{
				"box" : 				{
					"id" : "obj-45",
					"maxclass" : "newobj",
					"numinlets" : 3,
					"numoutlets" : 1,
					"outlettype" : [ "signal" ],
					"patching_rect" : [ 289.0, 304.134583, 75.0, 22.0 ],
					"style" : "redness",
					"text" : "tri~ 0.5"
				}

			}
, 			{
				"box" : 				{
					"id" : "obj-40",
					"maxclass" : "newobj",
					"numinlets" : 2,
					"numoutlets" : 1,
					"outlettype" : [ "signal" ],
					"patching_rect" : [ 500.0, 820.649658, 32.0, 22.0 ],
					"style" : "redness",
					"text" : "+~"
				}

			}
, 			{
				"box" : 				{
					"format" : 6,
					"id" : "obj-25",
					"maxclass" : "flonum",
					"numinlets" : 1,
					"numoutlets" : 2,
					"outlettype" : [ "", "bang" ],
					"parameter_enable" : 0,
					"patching_rect" : [ 720.5, 330.830444, 64.0, 22.0 ],
					"style" : "redness"
				}

			}
, 			{
				"box" : 				{
					"format" : 6,
					"id" : "obj-26",
					"maxclass" : "flonum",
					"numinlets" : 1,
					"numoutlets" : 2,
					"outlettype" : [ "", "bang" ],
					"parameter_enable" : 0,
					"patching_rect" : [ 560.0, 335.429291, 62.0, 22.0 ],
					"style" : "redness"
				}

			}
, 			{
				"box" : 				{
					"format" : 6,
					"id" : "obj-24",
					"maxclass" : "flonum",
					"numinlets" : 1,
					"numoutlets" : 2,
					"outlettype" : [ "", "bang" ],
					"parameter_enable" : 0,
					"patching_rect" : [ 455.0, 219.012802, 63.0, 22.0 ],
					"style" : "redness"
				}

			}
, 			{
				"box" : 				{
					"id" : "obj-8",
					"maxclass" : "newobj",
					"numinlets" : 2,
					"numoutlets" : 1,
					"outlettype" : [ "signal" ],
					"patching_rect" : [ 501.0, 403.592346, 32.0, 22.0 ],
					"style" : "redness",
					"text" : "+~"
				}

			}
, 			{
				"box" : 				{
					"id" : "obj-22",
					"maxclass" : "newobj",
					"numinlets" : 2,
					"numoutlets" : 1,
					"outlettype" : [ "signal" ],
					"patching_rect" : [ 501.0, 363.915222, 31.0, 22.0 ],
					"style" : "redness",
					"text" : "*~"
				}

			}
, 			{
				"box" : 				{
					"id" : "obj-21",
					"maxclass" : "newobj",
					"numinlets" : 2,
					"numoutlets" : 1,
					"outlettype" : [ "signal" ],
					"patching_rect" : [ 501.0, 304.134583, 61.0, 22.0 ],
					"style" : "redness",
					"text" : "cycle~ 0."
				}

			}
, 			{
				"box" : 				{
					"id" : "obj-9",
					"maxclass" : "newobj",
					"numinlets" : 2,
					"numoutlets" : 1,
					"outlettype" : [ "signal" ],
					"patching_rect" : [ 289.0, 462.703674, 76.0, 22.0 ],
					"style" : "redness",
					"text" : "phasor~ 0.3"
				}

			}
, 			{
				"box" : 				{
					"id" : "obj-33",
					"maxclass" : "newobj",
					"numinlets" : 2,
					"numoutlets" : 1,
					"outlettype" : [ "signal" ],
					"patching_rect" : [ 455.0, 251.211899, 76.0, 22.0 ],
					"style" : "redness",
					"text" : "phasor~ 0.3"
				}

			}
, 			{
				"box" : 				{
					"id" : "obj-34",
					"maxclass" : "newobj",
					"numinlets" : 2,
					"numoutlets" : 1,
					"outlettype" : [ "signal" ],
					"patching_rect" : [ 333.0, 510.572021, 82.0, 22.0 ],
					"style" : "redness",
					"text" : "sah~ 0."
				}

			}
, 			{
				"box" : 				{
					"id" : "obj-35",
					"maxclass" : "newobj",
					"numinlets" : 2,
					"numoutlets" : 1,
					"outlettype" : [ "signal" ],
					"patching_rect" : [ 333.0, 543.926331, 41.0, 22.0 ],
					"style" : "redness",
					"text" : "*~ -1."
				}

			}
, 			{
				"box" : 				{
					"id" : "obj-39",
					"maxclass" : "newobj",
					"numinlets" : 3,
					"numoutlets" : 1,
					"outlettype" : [ "signal" ],
					"patching_rect" : [ 289.0, 584.926331, 84.0, 22.0 ],
					"style" : "redness",
					"text" : "pong~ 1 0. 1."
				}

			}
, 			{
				"box" : 				{
					"id" : "obj-48",
					"maxclass" : "newobj",
					"numinlets" : 2,
					"numoutlets" : 1,
					"outlettype" : [ "signal" ],
					"patching_rect" : [ 323.999969, 1103.637207, 36.0, 22.0 ],
					"style" : "redness",
					"text" : "*~ 4"
				}

			}
, 			{
				"box" : 				{
					"id" : "obj-49",
					"maxclass" : "newobj",
					"numinlets" : 3,
					"numoutlets" : 4,
					"outlettype" : [ "signal", "signal", "signal", "signal" ],
					"patching_rect" : [ 459.0, 856.333313, 101.0, 22.0 ],
					"style" : "redness",
					"text" : "svf~ 300 0.5"
				}

			}
, 			{
				"box" : 				{
					"id" : "obj-50",
					"interpinlet" : 1,
					"maxclass" : "gain~",
					"numinlets" : 2,
					"numoutlets" : 2,
					"outlettype" : [ "signal", "int" ],
					"parameter_enable" : 0,
					"patching_rect" : [ 343.5, 738.424438, 40.0, 90.0 ],
					"style" : "redness"
				}

			}
, 			{
				"box" : 				{
					"id" : "obj-51",
					"interpinlet" : 1,
					"maxclass" : "gain~",
					"numinlets" : 2,
					"numoutlets" : 2,
					"outlettype" : [ "signal", "int" ],
					"parameter_enable" : 0,
					"patching_rect" : [ 289.0, 738.424438, 40.0, 90.0 ],
					"style" : "redness"
				}

			}
, 			{
				"box" : 				{
					"format" : 6,
					"id" : "obj-52",
					"maxclass" : "flonum",
					"numinlets" : 1,
					"numoutlets" : 2,
					"outlettype" : [ "", "bang" ],
					"parameter_enable" : 0,
					"patching_rect" : [ 316.0, 655.926331, 53.0, 22.0 ],
					"style" : "redness"
				}

			}
, 			{
				"box" : 				{
					"id" : "obj-53",
					"maxclass" : "newobj",
					"numinlets" : 2,
					"numoutlets" : 1,
					"outlettype" : [ "signal" ],
					"patching_rect" : [ 343.5, 691.111328, 61.0, 22.0 ],
					"style" : "redness",
					"text" : "cycle~ 0."
				}

			}
, 			{
				"box" : 				{
					"id" : "obj-54",
					"maxclass" : "newobj",
					"numinlets" : 2,
					"numoutlets" : 1,
					"outlettype" : [ "signal" ],
					"patching_rect" : [ 289.0, 691.111328, 46.0, 22.0 ],
					"style" : "redness",
					"text" : ">~ 0.5"
				}

			}
, 			{
				"box" : 				{
					"id" : "obj-20",
					"maxclass" : "newobj",
					"numinlets" : 4,
					"numoutlets" : 2,
					"outlettype" : [ "signal", "signal" ],
					"patching_rect" : [ 323.999969, 1192.259521, 64.0, 22.0 ],
					"style" : "redness",
					"text" : "pan2 100"
				}

			}
, 			{
				"box" : 				{
					"id" : "obj-19",
					"maxclass" : "slider",
					"numinlets" : 1,
					"numoutlets" : 1,
					"outlettype" : [ "" ],
					"parameter_enable" : 0,
					"patching_rect" : [ 353.799957, 1150.392822, 93.266663, 28.866667 ],
					"style" : "redness"
				}

			}
, 			{
				"box" : 				{
					"id" : "obj-17",
					"maxclass" : "comment",
					"numinlets" : 1,
					"numoutlets" : 0,
					"patching_rect" : [ 374.999969, 1126.726196, 30.0, 20.0 ],
					"style" : "redness",
					"text" : "Pan"
				}

			}
 ],
		"lines" : [ 			{
				"patchline" : 				{
					"destination" : [ "obj-13", 0 ],
					"source" : [ "obj-1", 0 ]
				}

			}
, 			{
				"patchline" : 				{
					"destination" : [ "obj-11", 0 ],
					"source" : [ "obj-10", 0 ]
				}

			}
, 			{
				"patchline" : 				{
					"destination" : [ "obj-12", 1 ],
					"source" : [ "obj-11", 0 ]
				}

			}
, 			{
				"patchline" : 				{
					"destination" : [ "obj-75", 0 ],
					"midpoints" : [ 495.833313, 1018.049805, 468.499969, 1018.049805 ],
					"source" : [ "obj-12", 1 ]
				}

			}
, 			{
				"patchline" : 				{
					"destination" : [ "obj-2", 0 ],
					"source" : [ "obj-13", 0 ]
				}

			}
, 			{
				"patchline" : 				{
					"destination" : [ "obj-61", 0 ],
					"source" : [ "obj-14", 0 ]
				}

			}
, 			{
				"patchline" : 				{
					"destination" : [ "obj-18", 0 ],
					"source" : [ "obj-15", 0 ]
				}

			}
, 			{
				"patchline" : 				{
					"destination" : [ "obj-14", 0 ],
					"source" : [ "obj-18", 0 ]
				}

			}
, 			{
				"patchline" : 				{
					"destination" : [ "obj-20", 2 ],
					"midpoints" : [ 363.299957, 1179.259766, 363.499969, 1179.259766 ],
					"order" : 1,
					"source" : [ "obj-19", 0 ]
				}

			}
, 			{
				"patchline" : 				{
					"destination" : [ "obj-87", 0 ],
					"midpoints" : [ 363.299957, 1189.757812, 517.0, 1189.757812 ],
					"order" : 0,
					"source" : [ "obj-19", 0 ]
				}

			}
, 			{
				"patchline" : 				{
					"destination" : [ "obj-8", 1 ],
					"midpoints" : [ 666.5, 394.253784, 523.5, 394.253784 ],
					"source" : [ "obj-2", 0 ]
				}

			}
, 			{
				"patchline" : 				{
					"destination" : [ "obj-4", 1 ],
					"source" : [ "obj-20", 1 ]
				}

			}
, 			{
				"patchline" : 				{
					"destination" : [ "obj-4", 0 ],
					"order" : 1,
					"source" : [ "obj-20", 0 ]
				}

			}
, 			{
				"patchline" : 				{
					"destination" : [ "obj-87", 1 ],
					"midpoints" : [ 333.499969, 1224.591187, 567.0, 1224.591187 ],
					"order" : 0,
					"source" : [ "obj-20", 0 ]
				}

			}
, 			{
				"patchline" : 				{
					"destination" : [ "obj-22", 0 ],
					"source" : [ "obj-21", 0 ]
				}

			}
, 			{
				"patchline" : 				{
					"destination" : [ "obj-8", 0 ],
					"source" : [ "obj-22", 0 ]
				}

			}
, 			{
				"patchline" : 				{
					"destination" : [ "obj-33", 0 ],
					"source" : [ "obj-24", 0 ]
				}

			}
, 			{
				"patchline" : 				{
					"destination" : [ "obj-2", 1 ],
					"midpoints" : [ 730.0, 357.872833, 677.5, 357.872833 ],
					"source" : [ "obj-25", 0 ]
				}

			}
, 			{
				"patchline" : 				{
					"destination" : [ "obj-22", 1 ],
					"midpoints" : [ 569.5, 360.172241, 522.5, 360.172241 ],
					"source" : [ "obj-26", 0 ]
				}

			}
, 			{
				"patchline" : 				{
					"destination" : [ "obj-1", 0 ],
					"source" : [ "obj-27", 0 ]
				}

			}
, 			{
				"patchline" : 				{
					"destination" : [ "obj-76", 0 ],
					"midpoints" : [ 534.5, 777.365112, 534.5, 777.365112 ],
					"source" : [ "obj-28", 0 ]
				}

			}
, 			{
				"patchline" : 				{
					"destination" : [ "obj-10", 0 ],
					"source" : [ "obj-29", 0 ]
				}

			}
, 			{
				"patchline" : 				{
					"destination" : [ "obj-28", 0 ],
					"midpoints" : [ 534.5, 743.378906, 534.5, 743.378906 ],
					"source" : [ "obj-3", 0 ]
				}

			}
, 			{
				"patchline" : 				{
					"destination" : [ "obj-21", 1 ],
					"midpoints" : [ 464.5, 288.173218, 552.5, 288.173218 ],
					"order" : 0,
					"source" : [ "obj-33", 0 ]
				}

			}
, 			{
				"patchline" : 				{
					"destination" : [ "obj-45", 2 ],
					"midpoints" : [ 464.5, 280.173218, 354.5, 280.173218 ],
					"order" : 1,
					"source" : [ "obj-33", 0 ]
				}

			}
, 			{
				"patchline" : 				{
					"destination" : [ "obj-35", 0 ],
					"source" : [ "obj-34", 0 ]
				}

			}
, 			{
				"patchline" : 				{
					"destination" : [ "obj-39", 0 ],
					"midpoints" : [ 342.5, 574.926331, 298.5, 574.926331 ],
					"source" : [ "obj-35", 0 ]
				}

			}
, 			{
				"patchline" : 				{
					"destination" : [ "obj-24", 0 ],
					"source" : [ "obj-36", 0 ]
				}

			}
, 			{
				"patchline" : 				{
					"destination" : [ "obj-53", 1 ],
					"midpoints" : [ 298.5, 617.185486, 395.0, 617.185486 ],
					"order" : 0,
					"source" : [ "obj-39", 0 ]
				}

			}
, 			{
				"patchline" : 				{
					"destination" : [ "obj-54", 0 ],
					"midpoints" : [ 298.5, 617.185486, 298.5, 617.185486 ],
					"order" : 1,
					"source" : [ "obj-39", 0 ]
				}

			}
, 			{
				"patchline" : 				{
					"destination" : [ "obj-49", 1 ],
					"source" : [ "obj-40", 0 ]
				}

			}
, 			{
				"patchline" : 				{
					"destination" : [ "obj-57", 1 ],
					"midpoints" : [ 361.0, 399.753784, 311.5, 399.753784 ],
					"source" : [ "obj-41", 0 ]
				}

			}
, 			{
				"patchline" : 				{
					"destination" : [ "obj-44", 1 ],
					"midpoints" : [ 361.0, 360.172241, 310.5, 360.172241 ],
					"source" : [ "obj-42", 0 ]
				}

			}
, 			{
				"patchline" : 				{
					"destination" : [ "obj-57", 0 ],
					"source" : [ "obj-44", 0 ]
				}

			}
, 			{
				"patchline" : 				{
					"destination" : [ "obj-44", 0 ],
					"source" : [ "obj-45", 0 ]
				}

			}
, 			{
				"patchline" : 				{
					"destination" : [ "obj-20", 0 ],
					"source" : [ "obj-48", 0 ]
				}

			}
, 			{
				"patchline" : 				{
					"destination" : [ "obj-12", 0 ],
					"source" : [ "obj-49", 0 ]
				}

			}
, 			{
				"patchline" : 				{
					"destination" : [ "obj-49", 0 ],
					"midpoints" : [ 353.0, 841.878906, 468.5, 841.878906 ],
					"order" : 0,
					"source" : [ "obj-50", 0 ]
				}

			}
, 			{
				"patchline" : 				{
					"destination" : [ "obj-73", 0 ],
					"midpoints" : [ 353.0, 946.981689, 333.499969, 946.981689 ],
					"order" : 1,
					"source" : [ "obj-50", 0 ]
				}

			}
, 			{
				"patchline" : 				{
					"destination" : [ "obj-49", 0 ],
					"midpoints" : [ 298.5, 841.878906, 468.5, 841.878906 ],
					"order" : 0,
					"source" : [ "obj-51", 0 ]
				}

			}
, 			{
				"patchline" : 				{
					"destination" : [ "obj-73", 0 ],
					"midpoints" : [ 298.5, 946.981689, 333.499969, 946.981689 ],
					"order" : 1,
					"source" : [ "obj-51", 0 ]
				}

			}
, 			{
				"patchline" : 				{
					"destination" : [ "obj-54", 1 ],
					"source" : [ "obj-52", 0 ]
				}

			}
, 			{
				"patchline" : 				{
					"destination" : [ "obj-50", 0 ],
					"source" : [ "obj-53", 0 ]
				}

			}
, 			{
				"patchline" : 				{
					"destination" : [ "obj-51", 0 ],
					"midpoints" : [ 298.5, 738.154236, 298.5, 738.154236 ],
					"source" : [ "obj-54", 0 ]
				}

			}
, 			{
				"patchline" : 				{
					"destination" : [ "obj-58", 0 ],
					"source" : [ "obj-55", 0 ]
				}

			}
, 			{
				"patchline" : 				{
					"destination" : [ "obj-9", 0 ],
					"midpoints" : [ 298.5, 443.64801, 298.5, 443.64801 ],
					"source" : [ "obj-57", 0 ]
				}

			}
, 			{
				"patchline" : 				{
					"destination" : [ "obj-52", 0 ],
					"midpoints" : [ 170.5, 644.963135, 325.5, 644.963135 ],
					"source" : [ "obj-58", 0 ]
				}

			}
, 			{
				"patchline" : 				{
					"destination" : [ "obj-29", 0 ],
					"midpoints" : [ 617.166687, 885.833374, 509.499969, 885.833374 ],
					"source" : [ "obj-6", 0 ]
				}

			}
, 			{
				"patchline" : 				{
					"destination" : [ "obj-19", 0 ],
					"midpoints" : [ 229.666595, 1147.276367, 363.299957, 1147.276367 ],
					"source" : [ "obj-62", 0 ]
				}

			}
, 			{
				"patchline" : 				{
					"destination" : [ "obj-12", 2 ],
					"source" : [ "obj-7", 0 ]
				}

			}
, 			{
				"patchline" : 				{
					"destination" : [ "obj-48", 0 ],
					"source" : [ "obj-73", 0 ]
				}

			}
, 			{
				"patchline" : 				{
					"destination" : [ "obj-48", 0 ],
					"midpoints" : [ 468.499969, 1085.368408, 333.499969, 1085.368408 ],
					"source" : [ "obj-75", 0 ]
				}

			}
, 			{
				"patchline" : 				{
					"destination" : [ "obj-40", 0 ],
					"midpoints" : [ 534.5, 810.811096, 509.5, 810.811096 ],
					"source" : [ "obj-76", 0 ]
				}

			}
, 			{
				"patchline" : 				{
					"destination" : [ "obj-49", 2 ],
					"source" : [ "obj-77", 0 ]
				}

			}
, 			{
				"patchline" : 				{
					"destination" : [ "obj-34", 1 ],
					"midpoints" : [ 510.5, 467.582184, 405.5, 467.582184 ],
					"order" : 1,
					"source" : [ "obj-8", 0 ]
				}

			}
, 			{
				"patchline" : 				{
					"destination" : [ "obj-40", 0 ],
					"midpoints" : [ 510.5, 622.620972, 509.5, 622.620972 ],
					"order" : 0,
					"source" : [ "obj-8", 0 ]
				}

			}
, 			{
				"patchline" : 				{
					"destination" : [ "obj-9", 0 ],
					"midpoints" : [ 510.5, 443.64801, 298.5, 443.64801 ],
					"order" : 2,
					"source" : [ "obj-8", 0 ]
				}

			}
, 			{
				"patchline" : 				{
					"destination" : [ "obj-34", 0 ],
					"midpoints" : [ 298.5, 497.376892, 342.5, 497.376892 ],
					"order" : 0,
					"source" : [ "obj-9", 0 ]
				}

			}
, 			{
				"patchline" : 				{
					"destination" : [ "obj-39", 0 ],
					"midpoints" : [ 298.5, 534.315002, 298.5, 534.315002 ],
					"order" : 1,
					"source" : [ "obj-9", 0 ]
				}

			}
 ],
		"dependency_cache" : [ 			{
				"name" : "pan2.maxpat",
				"bootpath" : "/Users/Shared/Max 7/Examples/spatialization/panning/lib",
				"patcherrelativepath" : "../../../../../Shared/Max 7/Examples/spatialization/panning/lib",
				"type" : "JSON",
				"implicit" : 1
			}
 ],
		"autosave" : 0,
		"styles" : [ 			{
				"name" : "dialGold",
				"default" : 				{
					"bgcolor" : [ 0.764706, 0.592157, 0.101961, 1.0 ]
				}
,
				"parentstyle" : "",
				"multi" : 0
			}
, 			{
				"name" : "dialtan",
				"default" : 				{
					"bgcolor" : [ 0.654902, 0.572549, 0.376471, 1.0 ]
				}
,
				"parentstyle" : "",
				"multi" : 0
			}
, 			{
				"name" : "ksliderWhite",
				"default" : 				{
					"color" : [ 1.0, 1.0, 1.0, 1.0 ]
				}
,
				"parentstyle" : "",
				"multi" : 0
			}
, 			{
				"name" : "newobjBlue-1",
				"default" : 				{
					"accentcolor" : [ 0.317647, 0.654902, 0.976471, 1.0 ]
				}
,
				"parentstyle" : "",
				"multi" : 0
			}
, 			{
				"name" : "newobjGreen-1",
				"default" : 				{
					"accentcolor" : [ 0.0, 0.533333, 0.168627, 1.0 ]
				}
,
				"parentstyle" : "",
				"multi" : 0
			}
, 			{
				"name" : "newobjYellow-1",
				"default" : 				{
					"accentcolor" : [ 0.82517, 0.78181, 0.059545, 1.0 ],
					"fontsize" : [ 12.059008 ]
				}
,
				"parentstyle" : "",
				"multi" : 0
			}
, 			{
				"name" : "numberGold-1",
				"default" : 				{
					"accentcolor" : [ 0.764706, 0.592157, 0.101961, 1.0 ]
				}
,
				"parentstyle" : "",
				"multi" : 0
			}
, 			{
				"name" : "white monospace",
				"default" : 				{
					"fontname" : [ "Monaco" ],
					"elementcolor" : [ 0.783142, 0.798632, 0.841227, 1.0 ],
					"textcolor_inverse" : [ 0.0, 0.0, 0.0, 1.0 ],
					"bgfillcolor" : 					{
						"type" : "gradient",
						"color" : [ 0.290196, 0.309804, 0.301961, 1.0 ],
						"color1" : [ 1.0, 1.0, 1.0, 1.0 ],
						"color2" : [ 0.862745, 0.870588, 0.878431, 1.0 ],
						"angle" : 270.0,
						"proportion" : 0.39,
						"autogradient" : 0
					}
,
					"bgcolor" : [ 0.977519, 1.0, 0.995363, 1.0 ],
					"color" : [ 0.016099, 0.011851, 0.003354, 1.0 ]
				}
,
				"parentstyle" : "",
				"multi" : 0
			}
 ]
	}

}
